#!OML:ASF H:\LiuWeirdWalks\Patient Classification 1\Patient 1\Session 1\male.ASF
:FULLY-SPECIFIED
:DEGREES
350
root 0.497763 18.8367 -15.6005 8.07918 4.2883 -14.4585
lowerback 9.06348 1.25152 4.07505
upperback -0.125966 2.34534 4.46696
thorax -5.25382 1.1121 2.06221
lowerneck -21.4716 1.08172 7.97174
upperneck 18.4249 -0.170664 -3.88341
head 9.33819 0.0435787 -2.68175
rclavicle 6.95746e-016 6.75868e-015
rhumerus -47.3683 7.47911 -85.884
rradius 32.8904
rwrist -4.32877
rhand -11.4948 -2.03333
rfingers 7.12502
rthumb 14.5438 -31.5035
lclavicle 6.95746e-016 6.75868e-015
lhumerus -37.0067 -2.48194 65.4149
lradius 86.8335
lwrist 13.9479
lhand -20.4275 -9.54667
lfingers 7.12502
lthumb 5.9271 20.3504
rfemur -1.81766 -4.86331 28.4938
rtibia 58.0882
rfoot -10.4599 -18.9876
rtoes -9.02755
lfemur -36.6952 4.01156 -13.1992
ltibia 34.7572
lfoot 8.82439 8.6594
ltoes -20.7315
351
root 0.49004 18.68 -15.3853 7.77149 3.37907 -14.7979
lowerback 8.96966 1.41605 4.28187
upperback -0.0981503 2.57683 4.46634
thorax -5.16471 1.22189 1.9172
lowerneck -20.8241 1.16673 8.00885
upperneck 18.5112 -0.0217276 -3.82136
head 9.26388 0.128603 -2.64276
rclavicle -1.46107e-014 3.26007e-014
rhumerus -47.2806 6.97149 -85.8312
rradius 32.3706
rwrist -3.47142
rhand -11.6299 -1.89822
rfingers 7.12502
rthumb 14.4137 -31.3777
lclavicle -1.46107e-014 3.26007e-014
lhumerus -38.275 -1.80909 65.6068
lradius 86.4516
lwrist 13.9811
lhand -20.5917 -9.66049
lfingers 7.12502
lthumb 5.7686 20.241
rfemur -1.19388 -4.17368 28.6077
rtibia 58.5038
rfoot -11.4806 -19.3756
rtoes -9.26498
lfemur -36.2768 4.40849 -12.7665
ltibia 35.3139
lfoot 7.58941 7.79579
ltoes -19.8886
352
root 0.482508 18.5187 -15.1753 7.40829 2.43977 -15.0709
lowerback 9.00844 1.57019 4.44156
upperback -0.0764137 2.79871 4.44985
thorax -5.15647 1.32683 1.7807
lowerneck -20.0057 1.22873 8.00873
upperneck 18.5488 0.112108 -3.71372
head 9.14076 0.209235 -2.58296
rclavicle 3.97569e-016 7.15625e-015
rhumerus -47.2445 6.46514 -85.7363
rradius 32.0329
rwrist -2.76881
rhand -11.884 -1.88741
rfingers 7.12502
rthumb 14.1688 -31.3842
lclavicle 3.97569e-016 7.15625e-015
lhumerus -39.4808 -1.18579 65.7149
lradius 86.0941
lwrist 13.8849
lhand -20.7434 -9.80405
lfingers 7.12502
lthumb 5.62212 20.1014
rfemur -0.723028 -3.54005 28.6214
rtibia 59.2542
rfoot -12.4273 -19.8126
rtoes -9.36102
lfemur -35.6798 4.86785 -12.418
ltibia 36.2425
lfoot 5.60878 7.06085
ltoes -18.6354
353
root 0.473219 18.3452 -14.9746 7.0175 1.51207 -15.2101
lowerback 9.17377 1.70561 4.48091
upperback -0.0668655 2.99191 4.40187
thorax -5.23523 1.41878 1.67832
lowerneck -18.9928 1.2486 7.93511
upperneck 18.5249 0.20895 -3.52775
head 8.95854 0.275877 -2.48827
rclavicle 5.11871e-014 2.22639e-014
rhumerus -47.244 5.95182 -85.5971
rradius 31.8567
rwrist -2.18524
rhand -12.2529 -1.96038
rfingers 7.12502
rthumb 13.8133 -31.4817
lclavicle 5.11871e-014 2.22639e-014
lhumerus -40.5933 -0.601483 65.7516
lradius 85.7404
lwrist 13.6595
lhand -20.8658 -9.95564
lfingers 7.12502
lthumb 5.50393 19.9529
rfemur -0.473636 -2.98874 28.4786
rtibia 60.3742
rfoot -13.3359 -20.2959
rtoes -9.3137
lfemur -35.0501 5.33107 -12.2333
ltibia 37.5093
lfoot 3.10222 6.66142
ltoes -17.0493
354
root 0.462162 18.1714 -14.7832 6.63145 0.63432 -15.1379
lowerback 9.43964 1.81748 4.31166
upperback -0.072133 3.13693 4.30452
thorax -5.3936 1.49039 1.64288
lowerneck -17.8287 1.22129 7.76549
upperneck 18.4505 0.258787 -3.24843
head 8.72839 0.323082 -2.35221
rclavicle -2.54444e-014 1.11319e-014
rhumerus -47.2544 5.41144 -85.403
rradius 31.8144
rwrist -1.6771
rhand -12.7301 -2.07136
rfingers 7.12502
rthumb 13.3534 -31.6235
lclavicle -2.54444e-014 1.11319e-014
lhumerus -41.5777 -0.0378067 65.7325
lradius 85.3639
lwrist 13.3149
lhand -20.9612 -10.0949
lfingers 7.12502
lthumb 5.41185 19.816
rfemur -0.480645 -2.54181 28.1101
rtibia 61.8018
rfoot -14.1986 -20.8049
rtoes -9.13007
lfemur -34.4649 5.74506 -12.2997
ltibia 39.0112
lfoot 0.373901 6.72266
ltoes -15.3053
355
root 0.449173 18.0041 -14.6014 6.27837 -0.162082 -14.7963
lowerback 9.76832 1.90491 3.86791
upperback -0.0907175 3.21866 4.14426
thorax -5.61247 1.53684 1.70025
lowerneck -16.6306 1.15748 7.50289
upperneck 18.366 0.264887 -2.88786
head 8.48582 0.350453 -2.18042
rclavicle -9.93923e-016 -2.22639e-014
rhumerus -47.2494 4.81901 -85.142
rradius 31.876
rwrist -1.21661
rhand -13.307 -2.18534
rfingers 7.12502
rthumb 12.7973 -31.7731
lclavicle -9.93923e-016 -2.22639e-014
lhumerus -42.3994 0.523754 65.6776
lradius 84.9339
lwrist 12.8805
lhand -21.0551 -10.2096
lfingers 7.12502
lthumb 5.32112 19.7036
rfemur -0.780539 -2.21589 27.4614
rtibia 63.4847
rfoot -15.0262 -21.3073
rtoes -8.82912
lfemur -34.019 6.07066 -12.6816
ltibia 40.6846
lfoot -2.27175 7.25367
ltoes -13.6232
356
root 0.434637 17.8488 -14.4295 5.97454 -0.857014 -14.1814
lowerback 10.1197 1.96933 3.14415
upperback -0.115587 3.23073 3.92145
thorax -5.86227 1.55675 1.85744
lowerneck -15.5351 1.08089 7.18141
upperneck 18.3012 0.24648 -2.49003
head 8.26689 0.364105 -1.99177
rclavicle -7.25564e-015 3.18055e-014
rhumerus -47.2062 4.15672 -84.8057
rradius 32.0124
rwrist -0.804069
rhand -13.9719 -2.28248
rfingers 7.12502
rthumb 12.1562 -31.9093
lclavicle -7.25564e-015 3.18055e-014
lhumerus -43.0313 1.09939 65.6114
lradius 84.4169
lwrist 12.3889
lhand -21.1881 -10.2919
lfingers 7.12502
lthumb 5.19276 19.6245
rfemur -1.38058 -2.0197 26.5302
rtibia 65.3325
rfoot -15.8058 -21.7651
rtoes -8.44645
lfemur -33.7494 6.28872 -13.3785
ltibia 42.4357
lfoot -4.59617 8.13664
ltoes -12.1874
357
root 0.419423 17.7084 -14.2674 5.72233 -1.44386 -13.3569
lowerback 10.4636 2.01185 2.2119
upperback -0.135322 3.17765 3.65364
thorax -6.11009 1.55199 2.09517
lowerneck -14.6852 1.02596 6.86063
upperneck 18.277 0.23849 -2.1219
head 8.10622 0.37783 -1.81451
rclavicle -2.52457e-014 7.95139e-015
rhumerus -47.1095 3.42627 -84.3979
rradius 32.1998
rwrist -0.470078
rhand -14.7057 -2.3633
rfingers 7.12502
rthumb 11.4486 -32.0307
lclavicle -2.52457e-014 7.95139e-015
lhumerus -43.4583 1.70058 65.5605
lradius 83.7812
lwrist 11.8713
lhand -21.4025 -10.3425
lfingers 7.12502
lthumb 4.98576 19.5789
rfemur -2.2658 -1.95032 25.3854
rtibia 67.2606
rfoot -16.5299 -22.1459
rtoes -8.02374
lfemur -33.6614 6.40112 -14.3089
ltibia 44.2134
lfoot -6.50364 9.19231
ltoes -11.1271
358
root 0.404674 17.5834 -14.1149 5.50635 -1.92956 -12.4493
lowerback 10.7883 2.03183 1.21116
upperback -0.135949 3.07481 3.37446
thorax -6.32744 1.52687 2.36993
lowerneck -14.1189 1.01407 6.59
upperneck 18.2669 0.269985 -1.8415
head 8.00275 0.403242 -1.67203
rclavicle -3.01159e-014 2.38542e-015
rhumerus -46.9554 2.65327 -83.9373
rradius 32.4153
rwrist -0.254515
rhand -15.4862 -2.43648
rfingers 7.12502
rthumb 10.6958 -32.1442
lclavicle -3.01159e-014 2.38542e-015
lhumerus -43.6854 2.32961 65.5494
lradius 83.0052
lwrist 11.3555
lhand -21.7284 -10.3701
lfingers 7.12502
lthumb 4.67107 19.5584
rfemur -3.39005 -1.99205 24.1664
rtibia 69.1847
rfoot -17.1852 -22.4344
rtoes -7.61147
lfemur -33.7143 6.43457 -15.319
ltibia 45.9815
lfoot -8.01881 10.2357
ltoes -10.4827
359
root 0.391361 17.4728 -13.9715 5.2975 -2.33428 -11.608
lowerback 11.1016 2.02829 0.302177
upperback -0.10312 2.94421 3.12353
thorax -6.49661 1.48714 2.63018
lowerneck -13.8118 1.05625 6.40509
upperneck 18.2414 0.360641 -1.68714
head 7.94287 0.448767 -1.57995
rclavicle -2.32578e-014 -2.8625e-014
rhumerus -46.749 1.887 -83.4566
rradius 32.6406
rwrist -0.191273
rhand -16.2831 -2.51311
rfingers 7.12502
rthumb 9.92701 -32.259
lclavicle -2.32578e-014 -2.8625e-014
lhumerus -43.735 2.98009 65.5964
lradius 82.0818
lwrist 10.8686
lhand -22.1775 -10.3838
lfingers 7.12502
lthumb 4.23738 19.5538
rfemur -4.68242 -2.11319 23.0436
rtibia 71.0264
rfoot -17.7599 -22.6349
rtoes -7.2566
lfemur -33.8329 6.43203 -16.2298
ltibia 47.7103
lfoot -9.23951 11.127
ltoes -10.2089
360
root 0.379958 17.3754 -13.8359 5.06353 -2.68813 -10.9395
lowerback 11.4199 2.00303 -0.407278
upperback -0.0257687 2.80659 2.92842
thorax -6.61165 1.43876 2.84014
lowerneck -13.6928 1.1516 6.31987
upperneck 18.179 0.514997 -1.6668
head 7.90709 0.517081 -1.5421
rclavicle 2.49475e-014 -2.94201e-014
rhumerus -46.4985 1.18956 -82.997
rradius 32.8587
rwrist -0.295028
rhand -17.0567 -2.60361
rfingers 7.12502
rthumb 9.18065 -32.3838
lclavicle 2.49475e-014 -2.94201e-014
lhumerus -43.6419 3.63444 65.7094
lradius 81.0233
lwrist 10.4357
lhand -22.7343 -10.3918
lfingers 7.12502
lthumb 3.69965 19.5558
rfemur -6.06687 -2.27423 22.1437
rtibia 72.7198
rfoot -18.2438 -22.7641
rtoes -6.99465
lfemur -33.9286 6.4406 -16.9148
ltibia 49.366
lfoot -10.2779 11.7978
ltoes -10.2187
361
root 0.370405 17.2909 -13.7069 4.77921 -3.02241 -10.4771
lowerback 11.7593 1.96062 -0.893717
upperback 0.101153 2.67451 2.79614
thorax -6.67666 1.38628 2.99094
lowerneck -13.6745 1.29082 6.33268
upperneck 18.0756 0.724037 -1.76265
head 7.87846 0.605881 -1.55294
rclavicle -1.27222e-014 -3.57812e-014
rhumerus -46.2114 0.623892 -82.6003
rradius 33.059
rwrist -0.556311
rhand -17.7602 -2.71299
rfingers 7.12502
rthumb 8.50173 -32.5218
lclavicle -1.27222e-014 -3.57812e-014
lhumerus -43.443 4.26464 65.8885
lradius 79.8604
lwrist 10.09
lhand -23.3619 -10.3993
lfingers 7.12502
lthumb 3.09365 19.558
rfemur -7.47936 -2.44047 21.5112
rtibia 74.216
rfoot -18.6372 -22.8394
rtoes -6.84082
lfemur -33.9223 6.49915 -17.3363
ltibia 50.9054
lfoot -11.2133 12.2413
ltoes -10.4037
